HIERARCHY
ROOT Hips
{
    OFFSET 0.000000 0.000000 0.000000
    CHANNELS 6 Xposition Yposition Zposition Zrotation Xrotation Yrotation
    JOINT Spine
    {
        OFFSET -0.000000 14.517291 0.000000
        CHANNELS 3 Zrotation Xrotation Yrotation
        JOINT Spine1
        {
            OFFSET -0.000000 37.558300 0.000000
            CHANNELS 3 Zrotation Xrotation Yrotation
            JOINT Neck
            {
                OFFSET -0.000000 37.404057 3.400369
                CHANNELS 3 Zrotation Xrotation Yrotation
                JOINT Head
                {
                    OFFSET -0.000000 24.785618 -3.540803
                    CHANNELS 3 Zrotation Xrotation Yrotation
                    End Site
                    {
                        OFFSET -0.000000 35.408028 0.000000
                    }
                }
            }
            JOINT LeftShoulder
            {
                OFFSET 6.992933 33.973492 -0.192664
                CHANNELS 3 Zrotation Xrotation Yrotation
                JOINT LeftArm
                {
                    OFFSET 21.527611 0.000000 0.000000
                    CHANNELS 3 Zrotation Xrotation Yrotation
                    JOINT LeftForeArm
                    {
                        OFFSET 56.353916 0.000000 0.000000
                        CHANNELS 3 Zrotation Xrotation Yrotation
                        JOINT LeftHand
                        {
                            OFFSET 47.774071 0.000000 0.000000
                            CHANNELS 3 Zrotation Xrotation Yrotation
                            End Site
                            {
                                OFFSET 26.556021 0.000000 0.000000
                            }
                        }
                    }
                }
            }
            JOINT RightShoulder
            {
                OFFSET -7.065357 33.973492 -0.192664
                CHANNELS 3 Zrotation Xrotation Yrotation
                JOINT RightArm
                {
                    OFFSET -21.527611 0.000000 0.000000
                    CHANNELS 3 Zrotation Xrotation Yrotation
                    JOINT RightForeArm
                    {
                        OFFSET -56.353916 0.000000 0.000000
                        CHANNELS 3 Zrotation Xrotation Yrotation
                        JOINT RightHand
                        {
                            OFFSET -47.774071 0.000000 0.000000
                            CHANNELS 3 Zrotation Xrotation Yrotation
                            End Site
                            {
                                OFFSET -26.556021 0.000000 0.000000
                            }
                        }
                    }
                }
            }
        }
    }
    JOINT LeftUpLeg
    {
        OFFSET 17.704014 0.000000 0.000000
        CHANNELS 3 Zrotation Xrotation Yrotation
        JOINT LeftLeg
        {
            OFFSET -0.000000 -81.181816 0.000000
            CHANNELS 3 Zrotation Xrotation Yrotation
            JOINT LeftFoot
            {
                OFFSET -0.000000 -62.821102 0.000000
                CHANNELS 3 Zrotation Xrotation Yrotation
                JOINT LeftToeBase
                {
                    OFFSET -0.000000 -11.507608 26.556021
                    CHANNELS 3 Zrotation Xrotation Yrotation
                    End Site
                    {
                        OFFSET -0.000000 0.000000 7.081605
                    }
                }
            }
        }
    }
    JOINT RightUpLeg
    {
        OFFSET -17.704014 0.000000 0.000000
        CHANNELS 3 Zrotation Xrotation Yrotation
        JOINT RightLeg
        {
            OFFSET -0.000000 -81.181816 0.000000
            CHANNELS 3 Zrotation Xrotation Yrotation
            JOINT RightFoot
            {
                OFFSET -0.000000 -62.821102 0.000000
                CHANNELS 3 Zrotation Xrotation Yrotation
                JOINT RightToeBase
                {
                    OFFSET -0.000000 -11.507608 26.556021
                    CHANNELS 3 Zrotation Xrotation Yrotation
                    End Site
                    {
                        OFFSET -0.000000 0.000000 7.081605
                    }
                }
            }
        }
    }
}
MOTION
Frames:    8
Frame Time:    0.008333
10.888234    150.950928    -76.973083    2.778600    -0.249200    30.522289    -0.425425    2.060227    -1.636101    -5.433298    2.823915    -0.413332    6.875023    3.390680    -12.397421    8.085896    -0.797979    -12.532376    4.874732    7.962576    -17.507822    -26.359379    24.012447    -59.123081    1.660365    -13.723123    -97.003700    11.849990    -13.011431    -11.005103    -8.618378    -1.023187    -1.150941    26.178492    -24.862230    56.088093    -18.657505    -12.446252    63.708675    -2.129520    -1.503562    36.171555    31.857576    -4.139710    -9.353365    -8.486939    22.353409    -17.932997    -29.101383    -8.702003    43.559990    0.000000    0.000000    0.000000    -13.320953    -25.455938    -1.905044    23.216343    47.739700    -14.760795    -7.328721    -19.958004    -21.647589    0.000000    0.000000    0.000000    
10.915229    150.958176    -77.000412    2.755182    -0.264750    30.531021    -0.416755    2.068234    -1.643011    -5.434797    2.832580    -0.415181    6.860192    3.401314    -12.413243    8.081853    -0.821270    -12.545440    4.868542    7.959169    -17.527153    -26.370583    23.997362    -59.099331    1.652929    -13.714463    -96.974396    11.852106    -13.010975    -10.994768    -8.632807    -1.026058    -1.153808    26.180189    -24.852749    56.070953    -18.651237    -12.435741    63.721313    -2.097885    -1.483703    36.176369    31.877705    -4.114747    -9.265673    -8.480811    22.321560    -17.903765    -29.080410    -8.712431    43.520798    0.000000    0.000000    0.000000    -13.311230    -25.439047    -1.930344    23.184328    47.711647    -14.719359    -7.318369    -19.928789    -21.646542    0.000000    0.000000    0.000000    
10.937086    150.964142    -77.025536    2.726693    -0.279600    30.543644    -0.347146    2.118464    -1.674809    -5.517324    2.773974    -0.426090    6.814641    3.412380    -12.426882    8.139849    -0.816913    -12.545380    4.877293    7.961432    -17.478649    -26.368322    24.012938    -59.096546    1.626011    -13.695852    -96.965813    11.907407    -13.026454    -10.983999    -8.623442    -1.003216    -1.157988    26.201588    -24.848236    56.094025    -18.636087    -12.420741    63.750454    -2.078101    -1.465541    36.202118    31.897442    -4.095353    -9.165959    -8.475118    22.302250    -17.889513    -29.025959    -8.727729    43.489754    0.000000    0.000000    0.000000    -13.299486    -25.424423    -1.946799    23.168289    47.681705    -14.700079    -7.296614    -19.912245    -21.632029    0.000000    0.000000    0.000000    
10.953013    150.970749    -77.048286    2.698110    -0.295642    30.555218    -0.326289    2.122065    -1.678291    -5.527212    2.781199    -0.426524    6.809663    3.415956    -12.436362    8.113348    -0.830485    -12.557402    4.879679    7.963035    -17.505489    -26.368946    24.025850    -59.090797    1.613909    -13.737946    -96.932922    11.958549    -13.085691    -10.963818    -8.620763    -0.999529    -1.157910    26.159107    -24.833200    56.067024    -18.654905    -12.429181    63.743122    -2.070665    -1.461010    36.193855    31.914061    -4.070737    -9.080681    -8.472032    22.268770    -17.848692    -28.964485    -8.737989    43.461014    0.000000    0.000000    0.000000    -13.284960    -25.405327    -1.963276    23.165668    47.638618    -14.704417    -7.290174    -19.893526    -21.624908    0.000000    0.000000    0.000000    
10.958654    150.978607    -77.063576    2.668658    -0.317687    30.576111    -0.303932    2.134815    -1.689215    -5.535818    2.786420    -0.429565    6.807362    3.416009    -12.448504    8.077475    -0.850780    -12.573647    4.873209    7.964376    -17.511425    -26.367727    24.024368    -59.096081    1.611917    -13.747570    -96.885155    12.002664    -13.100319    -10.935589    -8.614993    -0.999919    -1.176502    26.119194    -24.815998    56.057117    -18.667900    -12.431858    63.735374    -2.102562    -1.467234    36.175930    31.928738    -4.048184    -9.009168    -8.466315    22.237228    -17.801638    -28.907696    -8.759406    43.473103    0.000000    0.000000    0.000000    -13.261591    -25.379917    -1.964443    23.166708    47.593964    -14.746634    -7.266834    -19.880816    -21.584908    0.000000    0.000000    0.000000    
10.965546    150.985001    -77.075462    2.642778    -0.336126    30.600885    -0.279552    2.142488    -1.692191    -5.549525    2.793541    -0.429709    6.795960    3.394724    -12.460654    8.058668    -0.837710    -12.589963    4.874992    7.973633    -17.530233    -26.368008    24.026445    -59.113434    1.605389    -13.777412    -96.840233    12.007477    -13.137002    -10.913736    -8.625244    -1.010091    -1.200895    26.086437    -24.779631    56.030766    -18.704613    -12.454056    63.718418    -2.111048    -1.473204    36.190464    31.931841    -4.028397    -8.930818    -8.452790    22.212221    -17.770147    -28.846287    -8.806315    43.496456    0.000000    0.000000    0.000000    -13.241995    -25.357046    -1.996902    23.133244    47.570404    -14.717812    -7.258583    -19.865501    -21.567019    0.000000    0.000000    0.000000    
10.961675    150.992615    -77.083435    2.611660    -0.351363    30.626940    -0.265722    2.154078    -1.699008    -5.545261    2.783179    -0.432503    6.800655    3.369369    -12.461113    8.004715    -0.811307    -12.602298    4.868608    7.981188    -17.550711    -26.393436    24.024328    -59.113018    1.573546    -13.772292    -96.807457    12.030025    -13.166481    -10.878743    -8.631849    -1.007041    -1.217624    26.045877    -24.761183    56.004128    -18.729342    -12.457853    63.707600    -2.124499    -1.468159    36.192806    31.939987    -4.017025    -8.873344    -8.440473    22.180811    -17.737768    -28.794781    -8.822977    43.527969    0.000000    0.000000    0.000000    -13.210792    -25.342278    -2.016004    23.112486    47.541813    -14.744263    -7.243675    -19.846859    -21.539612    0.000000    0.000000    0.000000    
10.948369    150.997864    -77.083862    2.585573    -0.366859    30.658813    -0.266826    2.162179    -1.702875    -5.532681    2.786042    -0.434037    6.825740    3.366707    -12.471127    7.941936    -0.831348    -12.623750    4.876778    7.985088    -17.571850    -26.416382    24.024418    -59.138016    1.484197    -13.740076    -96.778519    12.242077    -13.246894    -10.820334    -8.635816    -1.015045    -1.239526    26.007212    -24.746197    55.972923    -18.739729    -12.465880    63.700607    -2.115235    -1.468719    36.212952    31.945078    -4.013051    -8.821908    -8.421241    22.161978    -17.748688    -28.761436    -8.876860    43.606777    0.000000    0.000000    0.000000    -13.181392    -25.320477    -2.028196    23.109274    47.509388    -14.755095    -7.259410    -19.844311    -21.553837    0.000000    0.000000    0.000000    
